<?xml version="1.0" encoding="UTF-8" standalone="no"?>
<!-- Created with Inkscape (http://www.inkscape.org/) -->

<svg
   width="65.938972mm"
   height="58.491215mm"
   viewBox="0 0 65.938972 58.491215"
   version="1.1"
   id="svg5"
   xmlns="http://www.w3.org/2000/svg"
   xmlns:svg="http://www.w3.org/2000/svg">
  <defs
     id="defs2">
    <rect
       x="172.2997"
       y="381.88815"
       width="312.45392"
       height="79.720757"
       id="rect2871" />
  </defs>
  <g
     id="layer1"
     transform="translate(-10.886367,-113.72512)">
    <text
       xml:space="preserve"
       transform="matrix(0.26458333,0,0,0.26458333,-34.701031,54.773196)"
       id="text2869"
       style="font-style:normal;font-weight:normal;font-size:53.3333px;line-height:1.25;font-family:sans-serif;white-space:pre;shape-inside:url(#rect2871);fill:#000000;fill-opacity:1;stroke:none"><tspan
         x="172.29883"
         y="430.54626"
         id="tspan107238"><tspan
           style="font-family:Silom;-inkscape-font-specification:'Silom, Normal'"
           id="tspan107234">Type </tspan><tspan
           style="fill:#aa4400"
           id="tspan107236">Bee</tspan></tspan></text>
    <g
       id="g18500"
       transform="matrix(0.08584254,0,0,0.10565241,22.325735,107.14541)">
      <g
         id="g18412">
	<path
   style="fill:#6b676e"
   d="m 239.698,103.147 c -2.667,0 -5.286,-1.289 -6.874,-3.675 -7.55,-11.323 -16.762,-17.857 -28.148,-19.961 -24.643,-4.578 -50.72,13.667 -50.97,13.853 -3.715,2.644 -8.865,1.765 -11.507,-1.942 -2.635,-3.707 -1.781,-8.848 1.926,-11.492 1.289,-0.926 31.887,-22.458 63.453,-16.665 15.827,2.902 28.945,11.999 38.979,27.053 2.53,3.796 1.507,8.913 -2.289,11.443 -1.411,0.934 -2.999,1.386 -4.57,1.386 z"
   id="path18408" />

	<path
   style="fill:#6b676e"
   d="m 272.692,103.147 c 2.667,0 5.286,-1.289 6.874,-3.675 7.55,-11.323 16.762,-17.857 28.148,-19.961 24.643,-4.578 50.72,13.667 50.97,13.853 3.715,2.644 8.865,1.765 11.507,-1.942 2.635,-3.707 1.781,-8.848 -1.926,-11.492 -1.289,-0.926 -31.887,-22.458 -63.453,-16.665 -15.827,2.902 -28.945,11.999 -38.979,27.053 -2.53,3.796 -1.507,8.913 2.289,11.443 1.411,0.934 2.998,1.386 4.57,1.386 z"
   id="path18410" />

</g>
      <path
         style="fill:#585661"
         d="m 313.957,136.154 c 0,-27.345 -25.861,-49.511 -57.763,-49.511 -31.902,0 -57.763,22.167 -57.763,49.511"
         id="path18414" />
      <ellipse
         style="fill:#ffd750"
         cx="256.189"
         cy="317.69501"
         rx="107.274"
         ry="132.02901"
         id="ellipse18416" />
      <g
         id="g18422">
	<path
   style="fill:#6b676e"
   d="m 162.677,253.12 c -6.038,13.216 -10.208,27.85 -12.249,43.383 16.827,7.666 48.138,18.084 105.763,18.084 57.632,0 88.944,-10.422 105.769,-18.088 -2.041,-15.532 -6.212,-30.165 -12.25,-43.381 -19.671,5.961 -49.209,11.486 -93.518,11.486 -44.306,-10e-4 -73.844,-5.523 -93.515,-11.484 z"
   id="path18418" />

	<path
   style="fill:#6b676e"
   d="m 149.944,334.981 c 2.44,22.914 9.645,43.928 20.365,61.58 18.6,6.291 45.869,11.902 85.881,11.902 40.019,0 67.292,-5.613 85.891,-11.906 10.719,-17.652 17.922,-38.666 20.363,-61.579 -18.805,8.158 -51.086,17.705 -106.254,17.705 -55.161,0 -87.441,-9.545 -106.246,-17.702 z"
   id="path18420" />

</g>
      <path
         style="fill:#585661"
         d="m 326.335,181.538 c 0,29.623 -14.186,53.637 -70.141,53.637 -55.955,0 -70.141,-24.014 -70.141,-53.637 0,-29.623 14.186,-53.637 70.141,-53.637 55.955,0 70.141,24.015 70.141,53.637 z"
         id="path18424" />
      <path
         style="fill:#6b676e"
         d="m 330.461,160.908 c 0,22.786 -15.02,41.259 -74.267,41.259 -59.247,0 -74.267,-18.473 -74.267,-41.259 0,-22.786 15.02,-41.259 74.267,-41.259 59.247,0 74.267,18.473 74.267,41.259 z"
         id="path18426" />
      <path
         style="fill:#ffebd2"
         d="M 470.742,259.931 C 339.744,138.216 313.57,130.48 313.57,130.48 c 19.254,22.693 11.86,40.957 8.639,55.184 -16.504,72.891 14.441,117.589 33.007,132.029 39.73,30.9 156.785,69.109 156.785,41.259 C 512,315.63 494.786,282.271 470.742,259.931 Z"
         id="path18428" />
      <path
         style="fill:#ffdeb7"
         d="m 483.595,274.056 c -4.022,-5.062 -8.262,-9.858 -12.854,-14.124 -2.657,-2.468 -5.201,-4.815 -7.772,-7.19 -26.761,-5.794 -62.742,-13.56 -81.27,-17.385 -20.848,-22.705 -46.25,-48.217 -57.218,-59.129 -0.505,2.223 -1.047,4.371 -1.557,6.434 -0.236,0.973 -0.509,2.085 -0.716,3.002 -0.754,3.331 -1.306,6.539 -1.867,9.752 31.539,31.649 71.399,73.493 77.004,84.709 3.049,6.098 14.491,41.828 20.357,69.805 0.014,0.005 0.028,0.011 0.042,0.016 5.965,2.288 11.987,4.453 17.957,6.426 10e-4,10e-4 0.002,10e-4 0.002,10e-4 -5.358,-31.159 -19.773,-75.986 -23.596,-83.63 -1.883,-3.768 -6.3,-9.664 -12.167,-16.709 30.301,6.398 65.61,14.065 82.979,17.85 0.227,0.056 0.45,0.115 0.676,0.172 z"
         id="path18430" />
      <path
         style="fill:#ffebd2"
         d="M 41.259,259.931 C 172.257,138.216 198.431,130.48 198.431,130.48 c -19.254,22.693 -11.86,40.957 -8.639,55.184 16.504,72.891 -14.441,117.589 -33.007,132.029 C 117.055,348.593 0,386.803 0,358.953 0,315.63 17.214,282.271 41.259,259.931 Z"
         id="path18432" />
      <path
         style="fill:#ffdeb7"
         d="m 28.405,274.056 c 4.022,-5.062 8.262,-9.858 12.854,-14.124 2.657,-2.468 5.201,-4.815 7.772,-7.19 26.761,-5.794 62.742,-13.56 81.27,-17.385 20.848,-22.705 46.25,-48.217 57.218,-59.129 0.505,2.223 1.047,4.371 1.557,6.434 0.236,0.973 0.509,2.085 0.716,3.002 0.754,3.331 1.306,6.539 1.867,9.752 -31.539,31.649 -71.399,73.493 -77.004,84.709 -3.049,6.098 -14.491,41.828 -20.357,69.805 -0.014,0.005 -0.028,0.011 -0.042,0.016 -5.965,2.288 -11.987,4.453 -17.957,6.426 l -0.003,10e-4 c 5.359,-31.159 19.775,-75.986 23.597,-83.63 1.883,-3.768 6.3,-9.664 12.167,-16.709 -30.301,6.398 -65.61,14.065 -82.979,17.85 -0.227,0.056 -0.449,0.115 -0.676,0.172 z"
         id="path18434" />
    </g>
  </g>
</svg>
