<?xml version="1.0" encoding="UTF-8"?>
<!-- Created with Inkscape (http://www.inkscape.org/) -->
<svg width="65.939mm" height="58.491mm" version="1.1" viewBox="0 0 65.939 58.491" xmlns="http://www.w3.org/2000/svg">
 <g transform="translate(-10.886 -113.73)">
  <text transform="matrix(.26458 0 0 .26458 -34.701 54.773)" fill="#000000" font-family="sans-serif" font-size="53.333px" style="line-height:1.25;shape-inside:url(#rect2871);white-space:pre" xml:space="preserve"/>
  <g transform="matrix(.085843 0 0 .10565 22.326 107.15)">
   <g fill="#6b676e">
    <path d="m239.7 103.15c-2.667 0-5.286-1.289-6.874-3.675-7.55-11.323-16.762-17.857-28.148-19.961-24.643-4.578-50.72 13.667-50.97 13.853-3.715 2.644-8.865 1.765-11.507-1.942-2.635-3.707-1.781-8.848 1.926-11.492 1.289-0.926 31.887-22.458 63.453-16.665 15.827 2.902 28.945 11.999 38.979 27.053 2.53 3.796 1.507 8.913-2.289 11.443-1.411 0.934-2.999 1.386-4.57 1.386z"/>
    <path d="m272.69 103.15c2.667 0 5.286-1.289 6.874-3.675 7.55-11.323 16.762-17.857 28.148-19.961 24.643-4.578 50.72 13.667 50.97 13.853 3.715 2.644 8.865 1.765 11.507-1.942 2.635-3.707 1.781-8.848-1.926-11.492-1.289-0.926-31.887-22.458-63.453-16.665-15.827 2.902-28.945 11.999-38.979 27.053-2.53 3.796-1.507 8.913 2.289 11.443 1.411 0.934 2.998 1.386 4.57 1.386z"/>
   </g>
   <path d="m313.96 136.15c0-27.345-25.861-49.511-57.763-49.511s-57.763 22.167-57.763 49.511" fill="#585661"/>
   <ellipse cx="256.19" cy="317.7" rx="107.27" ry="132.03" fill="#ffd750"/>
   <g fill="#6b676e">
    <path d="m162.68 253.12c-6.038 13.216-10.208 27.85-12.249 43.383 16.827 7.666 48.138 18.084 105.76 18.084 57.632 0 88.944-10.422 105.77-18.088-2.041-15.532-6.212-30.165-12.25-43.381-19.671 5.961-49.209 11.486-93.518 11.486-44.306-1e-3 -73.844-5.523-93.515-11.484z"/>
    <path d="m149.94 334.98c2.44 22.914 9.645 43.928 20.365 61.58 18.6 6.291 45.869 11.902 85.881 11.902 40.019 0 67.292-5.613 85.891-11.906 10.719-17.652 17.922-38.666 20.363-61.579-18.805 8.158-51.086 17.705-106.25 17.705-55.161 0-87.441-9.545-106.25-17.702z"/>
   </g>
   <path d="m326.34 181.54c0 29.623-14.186 53.637-70.141 53.637s-70.141-24.014-70.141-53.637 14.186-53.637 70.141-53.637 70.141 24.015 70.141 53.637z" fill="#585661"/>
   <path d="m330.46 160.91c0 22.786-15.02 41.259-74.267 41.259s-74.267-18.473-74.267-41.259 15.02-41.259 74.267-41.259 74.267 18.473 74.267 41.259z" fill="#6b676e"/>
   <path d="m470.74 259.93c-131-121.72-157.17-129.45-157.17-129.45 19.254 22.693 11.86 40.957 8.639 55.184-16.504 72.891 14.441 117.59 33.007 132.03 39.73 30.9 156.78 69.109 156.78 41.259-1e-3 -43.322-17.215-76.681-41.259-99.021z" fill="#ffebd2"/>
   <path d="m483.6 274.06c-4.022-5.062-8.262-9.858-12.854-14.124-2.657-2.468-5.201-4.815-7.772-7.19-26.761-5.794-62.742-13.56-81.27-17.385-20.848-22.705-46.25-48.217-57.218-59.129-0.505 2.223-1.047 4.371-1.557 6.434-0.236 0.973-0.509 2.085-0.716 3.002-0.754 3.331-1.306 6.539-1.867 9.752 31.539 31.649 71.399 73.493 77.004 84.709 3.049 6.098 14.491 41.828 20.357 69.805 0.014 5e-3 0.028 0.011 0.042 0.016 5.965 2.288 11.987 4.453 17.957 6.426 1e-3 1e-3 2e-3 1e-3 2e-3 1e-3 -5.358-31.159-19.773-75.986-23.596-83.63-1.883-3.768-6.3-9.664-12.167-16.709 30.301 6.398 65.61 14.065 82.979 17.85 0.227 0.056 0.45 0.115 0.676 0.172z" fill="#ffdeb7"/>
   <path d="m41.259 259.93c131-121.72 157.17-129.45 157.17-129.45-19.254 22.693-11.86 40.957-8.639 55.184 16.504 72.891-14.441 117.59-33.007 132.03-39.73 30.9-156.78 69.11-156.78 41.26 0-43.323 17.214-76.682 41.259-99.022z" fill="#ffebd2"/>
   <path d="m28.405 274.06c4.022-5.062 8.262-9.858 12.854-14.124 2.657-2.468 5.201-4.815 7.772-7.19 26.761-5.794 62.742-13.56 81.27-17.385 20.848-22.705 46.25-48.217 57.218-59.129 0.505 2.223 1.047 4.371 1.557 6.434 0.236 0.973 0.509 2.085 0.716 3.002 0.754 3.331 1.306 6.539 1.867 9.752-31.539 31.649-71.399 73.493-77.004 84.709-3.049 6.098-14.491 41.828-20.357 69.805-0.014 5e-3 -0.028 0.011-0.042 0.016-5.965 2.288-11.987 4.453-17.957 6.426l-3e-3 1e-3c5.359-31.159 19.775-75.986 23.597-83.63 1.883-3.768 6.3-9.664 12.167-16.709-30.301 6.398-65.61 14.065-82.979 17.85-0.227 0.056-0.449 0.115-0.676 0.172z" fill="#ffdeb7"/>
  </g>
 </g>
</svg>
